<svg width="510" height="675" viewBox="0 0 510 675" fill="none" xmlns="http://www.w3.org/2000/svg">
<path d="M80.7242 660.717C80.7242 660.717 63.7276 545.99 165.707 545.99C192.832 564.074 216.071 576.571 242.192 576.517H241.129C267.25 576.571 281.14 558.125 308.266 540.042C440.588 540.041 405.996 660.717 405.996 660.717" fill="#92D3F5"/>
<path d="M235.853 632.449L208.328 599.035L180.802 565.622H235.853H290.905L263.379 599.035L235.853 632.449Z" fill="white"/>
<path d="M159.309 542.553C159.309 542.553 109.166 576.772 140.944 606.009H179.806L172.722 637.809L239.79 654.401L242.257 633.109L171.206 545.036" fill="#61B2E4"/>
<path d="M503.969 529.828L444.906 668.775H232.534L291.597 529.828H503.969Z" fill="#D0CFCE"/>
<path d="M505.81 529.828L446.747 668.775H444.877H370.347L429.41 529.828H503.94H505.81Z" fill="#9B9B9A"/>
<path d="M277.639 562.666L291.597 529.828H429.969C447.76 489.438 393.201 486.148 393.201 486.148C393.201 486.148 393.783 484.734 393.886 480.209C394.185 467.009 392.188 427.339 357.977 319.085C297.515 173.473 182.776 241.532 170.914 261.946C151.085 254.645 142.821 261.946 126.355 310.276C114.332 355.777 90.8023 447.736 92.6047 483.314C85.7075 479.679 29.1064 483.275 66.3306 552.035C75.2445 563.035 84.5832 572.974 94.273 581.873C106.273 561.905 127.734 545.991 165.708 545.991C192.607 563.925 215.694 576.328 241.551 576.481C255.802 576.395 266.449 570.697 277.639 562.666V562.666Z" fill="#A57939"/>
<path d="M337.187 352.071C339.072 357.828 340.627 363.797 341.823 369.943C343.692 379.548 344.683 389.585 344.683 399.909C344.683 469.694 299.426 526.265 243.598 526.265C187.77 526.265 142.513 469.694 142.513 399.909C142.513 395.817 142.668 391.77 142.972 387.776L143.409 391.035C160.568 382.698 186.155 307.615 186.155 307.615C186.155 307.615 180.125 362.348 337.585 355.338" fill="#FCEA2B"/>
<path d="M223.371 390.836C223.371 400.222 215.753 407.832 206.375 407.832C196.997 407.832 189.378 400.222 189.378 390.836C189.378 381.458 196.997 373.839 206.375 373.839C215.753 373.839 223.371 381.458 223.371 390.836Z" fill="black"/>
<path d="M240.366 475.839C230.578 475.839 220.789 473.408 211.071 468.548C206.871 466.448 205.17 461.344 207.27 457.145C209.365 452.95 214.461 451.245 218.673 453.344C233.271 460.647 247.462 460.647 262.061 453.344C266.264 451.245 271.364 452.95 273.464 457.145C275.563 461.344 273.861 466.448 269.662 468.548C259.944 473.408 250.155 475.839 240.366 475.839Z" fill="black"/>
<path d="M240.369 531.348C182.548 531.348 135.509 473.503 135.509 402.4C135.509 398.28 135.666 394.205 135.974 390.188L152.92 391.483C152.647 395.076 152.506 398.72 152.506 402.4C152.506 464.133 191.918 514.352 240.369 514.352C288.811 514.352 328.222 464.133 328.222 402.4C328.222 393.259 327.36 384.196 325.658 375.461C324.604 370.029 323.201 364.644 321.5 359.444L337.65 354.15C339.576 360.017 341.152 366.096 342.34 372.217C344.248 382.014 345.219 392.172 345.219 402.4C345.219 473.503 298.18 531.348 240.369 531.348V531.348Z" fill="black"/>
<path d="M287.084 438.639H270.029C256.875 438.639 245.531 430.771 240.443 419.493C235.356 430.771 224.011 438.639 210.857 438.639H193.802C175.918 438.639 161.369 424.09 161.369 406.206V395.687H155.485C150.787 395.687 146.987 391.881 146.987 387.188C146.987 382.495 150.787 378.69 155.485 378.69H169.868C174.565 378.69 178.366 382.495 178.366 387.188V406.206C178.366 414.72 185.287 421.642 193.802 421.642H210.857C219.372 421.642 226.293 414.72 226.293 406.206V396.824C226.293 392.13 230.094 388.325 234.791 388.325H246.095C250.792 388.325 254.593 392.13 254.593 396.824V406.206C254.593 414.72 261.514 421.642 270.029 421.642H287.084C295.599 421.642 302.52 414.72 302.52 406.206V387.188C302.52 382.495 306.321 378.69 311.018 378.69H320.845C325.542 378.69 329.343 382.495 329.343 387.188C329.343 391.881 325.542 395.687 320.845 395.687H319.517V406.206C319.517 424.09 304.968 438.639 287.084 438.639V438.639Z" fill="black"/>
<path d="M144.464 399.334C141.31 399.338 138.281 397.575 136.812 394.55C134.762 390.329 136.521 385.242 140.746 383.192C148.622 379.367 165.934 341.519 177.163 308.571C178.565 304.467 182.823 302.098 187.055 303.019C191.279 303.96 194.125 307.936 193.653 312.243C193.661 312.243 193.512 318.073 200.516 325.069C210.898 335.431 241.489 352.241 329.169 348.315C333.775 348.104 337.833 351.734 338.04 356.428C338.248 361.116 334.621 365.088 329.932 365.295C256.618 368.59 208.666 358.664 187.328 335.879C186.831 335.348 186.349 334.813 185.901 334.281C176.598 358.382 161.61 391.952 148.165 398.479C146.97 399.06 145.709 399.334 144.464 399.334V399.334Z" fill="black"/>
<path d="M72.6686 553.689C69.6475 553.689 66.7258 552.079 65.191 549.24C49.804 520.825 46.9656 501.479 56.5015 490.085C64.4024 480.657 77.9299 480.458 87.6401 481.86C89.1587 452.971 100.893 397.271 123.276 312.562C134.92 278.341 142.439 265.241 153.261 260.083C159.369 257.175 165.535 257.515 170.955 258.83C184.283 244.813 218.566 225.808 256.004 228.207C287.001 230.268 330.231 247.842 360.141 319.87C375.586 368.647 385.943 408.284 391.188 438.365C391.785 441.817 395.794 466.764 397.877 479.744C405.902 479.819 417.571 482.076 425.928 492.824C428.816 496.533 428.144 501.869 424.442 504.749C420.733 507.654 415.404 506.957 412.517 503.264C405.587 494.351 392.84 497.106 392.715 497.155C390.425 497.712 387.992 497.272 386.017 495.96C384.042 494.649 382.715 492.575 382.341 490.234C382.341 490.234 375.253 445.95 374.44 441.277C369.328 411.94 359.153 373.05 344.191 325.688C323.111 275.025 292.976 247.701 254.875 245.166C218.517 242.804 186.017 264.851 181.32 272.93C179.246 276.495 174.897 278.038 171.038 276.636C164.581 274.258 162.124 274.685 160.572 275.428C153.518 278.789 145.982 298.571 139.534 317.476C114.795 411.209 102.977 470.075 104.595 491.852C104.811 494.682 103.59 497.437 101.35 499.18C99.1093 500.932 96.1298 501.43 93.4495 500.549C85.6982 498.035 73.0664 496.765 69.5226 501.007C68.4025 502.359 63.6137 510.641 80.1378 541.141C82.3703 545.273 80.8346 550.427 76.7096 552.668C75.4238 553.357 74.0377 553.689 72.6686 553.689V553.689Z" fill="black"/>
<path d="M77.6147 661.52C73.4981 661.527 69.8795 658.523 69.2328 654.324C68.8835 652.033 60.9665 597.957 91.1669 562.752C107.508 543.705 131.542 534.053 162.614 534.053C164.29 534.053 165.934 534.551 167.328 535.481C194.2 553.399 215.554 564.528 238.767 564.586H239.098C243.788 564.586 247.589 568.387 247.596 573.076C247.605 577.823 243.854 581.624 238.941 581.582C238.875 581.582 238.825 581.582 238.758 581.582H238.036C237.903 581.582 237.779 581.582 237.646 581.574C211.305 581.209 188.216 569.648 160.091 551.075C135.476 551.556 116.662 559.183 104.122 573.756C79.0007 602.961 85.9549 651.261 86.0297 651.751C86.735 656.383 83.5482 660.714 78.909 661.428C78.4781 661.494 78.0464 661.52 77.6147 661.52V661.52Z" fill="black"/>
<path d="M222.758 630.621C220.259 630.621 217.795 629.535 216.118 627.435L154.381 550.344C151.444 546.685 152.032 541.332 155.701 538.401C159.378 535.439 164.722 536.062 167.643 539.721L229.38 616.812C232.318 620.472 231.729 625.825 228.061 628.754C226.492 630.016 224.616 630.621 222.758 630.621Z" fill="black"/>
<path d="M214.35 648.241C213.72 648.241 213.081 648.174 212.433 648.025L170.814 638.439C168.531 637.916 166.573 636.473 165.386 634.447C164.207 632.431 163.909 630.007 164.564 627.767L168.456 614.504H140.945C138.812 614.504 136.762 613.7 135.194 612.264C123.26 601.285 121.426 589.781 121.99 582.055C123.799 557.183 151.386 537.671 154.522 535.531C158.39 532.891 163.676 533.879 166.315 537.755C168.963 541.622 167.975 546.908 164.108 549.564C157.452 554.137 139.949 569.117 138.937 583.317C138.58 588.346 140.389 593.01 144.464 597.508H179.81C182.49 597.508 185.005 598.77 186.615 600.911C188.216 603.06 188.714 605.832 187.967 608.397L183.411 623.899L216.251 631.459C220.824 632.514 223.679 637.078 222.625 641.651C221.72 645.585 218.218 648.241 214.35 648.241V648.241Z" fill="black"/>
<path d="M232.534 668.775H444.906L503.969 529.828H291.597L232.534 668.775Z" stroke="black" stroke-width="11.7273" stroke-miterlimit="10" stroke-linecap="round" stroke-linejoin="round"/>
<path d="M139.308 668.775H232.534" stroke="black" stroke-width="11.7273" stroke-miterlimit="10" stroke-linecap="round" stroke-linejoin="round"/>
<rect x="242" y="368.649" width="75" height="55" rx="19" fill="black"/>
</svg>
