<svg width="441" height="441" viewBox="0 0 441 441" fill="none" xmlns="http://www.w3.org/2000/svg">
<path d="M29.7242 433.069C29.7242 433.069 12.7276 318.342 114.707 318.342C141.832 336.425 165.071 348.922 191.192 348.868H190.129C216.25 348.922 230.14 330.476 257.266 312.393C389.588 312.392 354.996 433.069 354.996 433.069" fill="#92D3F5"/>
<path d="M184.853 404.8L157.328 371.386L129.802 337.973H184.853H239.905L212.379 371.386L184.853 404.8Z" fill="white"/>
<path d="M108.309 314.904C108.309 314.904 58.1662 349.123 89.9438 378.36H128.806L121.722 410.16L188.79 426.753L191.257 405.46L120.206 317.387" fill="#61B2E4"/>
<path d="M452.969 302.179L393.906 441.126H181.534L240.597 302.179H452.969Z" fill="#D0CFCE"/>
<path d="M454.81 302.179L395.747 441.126H393.877H319.347L378.41 302.179H452.94H454.81Z" fill="#9B9B9A"/>
<path d="M226.639 335.017L240.597 302.179H378.969C396.76 261.789 342.201 258.5 342.201 258.5C342.201 258.5 342.783 257.085 342.886 252.56C343.185 239.361 341.188 199.691 306.977 91.436C246.515 -54.1761 131.776 13.8832 119.914 34.297C100.085 26.9961 91.8211 34.297 75.3548 82.6276C63.3323 128.128 39.8023 220.087 41.6047 255.665C34.7075 252.031 -21.8936 255.626 15.3306 324.386C24.2445 335.386 33.5832 345.325 43.273 354.224C55.2734 334.257 76.7341 318.342 114.708 318.342C141.607 336.276 164.694 348.679 190.551 348.832C204.802 348.746 215.449 343.048 226.639 335.017V335.017Z" fill="#A57939"/>
<path d="M286.187 124.422C288.072 130.179 289.627 136.148 290.823 142.294C292.692 151.9 293.683 161.936 293.683 172.261C293.683 242.045 248.426 298.617 192.598 298.617C136.77 298.617 91.5126 242.045 91.5126 172.261C91.5126 168.168 91.6681 164.121 91.9724 160.128L92.4092 163.387C109.568 155.049 135.155 79.9659 135.155 79.9659C135.155 79.9659 129.125 134.699 286.585 127.689" fill="#FCEA2B"/>
<path d="M172.371 163.187C172.371 172.573 164.753 180.184 155.375 180.184C145.997 180.184 138.378 172.573 138.378 163.187C138.378 153.809 145.997 146.19 155.375 146.19C164.753 146.19 172.371 153.809 172.371 163.187Z" fill="black"/>
<path d="M189.366 248.19C179.578 248.19 169.789 245.759 160.071 240.899C155.871 238.8 154.17 233.695 156.27 229.496C158.365 225.301 163.461 223.596 167.673 225.695C182.271 232.999 196.462 232.999 211.061 225.695C215.264 223.596 220.364 225.301 222.464 229.496C224.563 233.695 222.861 238.8 218.662 240.899C208.944 245.759 199.155 248.19 189.366 248.19Z" fill="black"/>
<path d="M189.369 303.699C131.548 303.699 84.5092 245.854 84.5092 174.751C84.5092 170.632 84.6664 166.557 84.974 162.539L101.92 163.835C101.647 167.428 101.506 171.071 101.506 174.751C101.506 236.485 140.918 286.703 189.369 286.703C237.811 286.703 277.222 236.485 277.222 174.751C277.222 165.61 276.36 156.547 274.658 147.813C273.604 142.381 272.201 136.995 270.5 131.795L286.65 126.501C288.576 132.368 290.152 138.448 291.34 144.568C293.248 154.365 294.219 164.523 294.219 174.751C294.219 245.854 247.18 303.699 189.369 303.699V303.699Z" fill="black"/>
<path d="M236.084 210.99H219.029C205.875 210.99 194.531 203.122 189.443 191.844C184.356 203.122 173.011 210.99 159.857 210.99H142.802C124.918 210.99 110.369 196.442 110.369 178.557V168.038H104.485C99.7874 168.038 95.987 164.232 95.987 159.54C95.987 154.846 99.7874 151.041 104.485 151.041H118.868C123.565 151.041 127.366 154.846 127.366 159.54V178.557C127.366 187.071 134.287 193.993 142.802 193.993H159.857C168.372 193.993 175.293 187.071 175.293 178.557V169.175C175.293 164.481 179.094 160.677 183.791 160.677H195.095C199.792 160.677 203.593 164.481 203.593 169.175V178.557C203.593 187.071 210.514 193.993 219.029 193.993H236.084C244.599 193.993 251.52 187.071 251.52 178.557V159.54C251.52 154.846 255.321 151.041 260.018 151.041H269.845C274.542 151.041 278.343 154.846 278.343 159.54C278.343 164.232 274.542 168.038 269.845 168.038H268.517V178.557C268.517 196.442 253.968 210.99 236.084 210.99V210.99Z" fill="black"/>
<path d="M93.4639 171.685C90.3102 171.69 87.2814 169.926 85.812 166.901C83.7622 162.681 85.5214 157.593 89.7459 155.544C97.6221 151.718 114.934 113.87 126.163 80.922C127.565 76.8181 131.823 74.4488 136.055 75.37C140.279 76.3117 143.125 80.2871 142.653 84.5941C142.661 84.5941 142.512 90.4247 149.516 97.4205C159.898 107.782 190.489 124.592 278.169 120.667C282.775 120.455 286.833 124.086 287.04 128.779C287.248 133.468 283.621 137.439 278.932 137.646C205.618 140.941 157.666 131.015 136.328 108.23C135.831 107.699 135.349 107.164 134.901 106.633C125.598 130.733 110.61 164.303 97.1649 170.83C95.97 171.412 94.7089 171.685 93.4639 171.685V171.685Z" fill="black"/>
<path d="M21.6686 326.04C18.6475 326.04 15.7258 324.43 14.191 321.592C-1.19599 293.176 -4.03442 273.83 5.50151 262.436C13.4024 253.008 26.9299 252.809 36.6401 254.211C38.1587 225.322 49.8931 169.623 72.2759 84.9135C83.9203 50.6926 91.4387 37.5925 102.261 32.434C108.369 29.5259 114.535 29.8659 119.955 31.1814C133.283 17.1643 167.566 -1.84124 205.004 0.55783C236.001 2.61951 279.231 20.1931 309.141 92.2212C324.586 140.999 334.943 180.636 340.188 210.716C340.785 214.168 344.794 239.116 346.877 252.095C354.902 252.17 366.571 254.427 374.928 265.175C377.816 268.884 377.144 274.22 373.442 277.1C369.733 280.005 364.404 279.308 361.517 275.615C354.587 266.702 341.84 269.457 341.715 269.506C339.425 270.063 336.992 269.623 335.017 268.312C333.042 267 331.715 264.926 331.341 262.585C331.341 262.585 324.253 218.301 323.44 213.628C318.328 184.292 308.153 145.402 293.191 98.0391C272.111 47.3766 241.976 20.052 203.875 17.517C167.517 15.1553 135.017 37.2024 130.32 45.2817C128.246 48.8459 123.897 50.3892 120.038 48.987C113.581 46.6092 111.124 47.0366 109.572 47.7794C102.518 51.1405 94.9825 70.9219 88.534 89.8272C63.7946 183.561 51.9769 242.427 53.595 264.203C53.8108 267.033 52.5905 269.789 50.3503 271.532C48.1093 273.283 45.1298 273.781 42.4495 272.901C34.6982 270.386 22.0664 269.116 18.5226 273.358C17.4025 274.71 12.6137 282.992 29.1378 313.492C31.3703 317.625 29.8346 322.779 25.7096 325.02C24.4238 325.708 23.0377 326.04 21.6686 326.04V326.04Z" fill="black"/>
<path d="M26.6147 433.871C22.4981 433.879 18.8795 430.874 18.2328 426.675C17.8835 424.384 9.96654 370.308 40.1669 335.103C56.5082 316.057 80.5422 306.404 111.614 306.404C113.29 306.404 114.934 306.902 116.328 307.832C143.2 325.75 164.554 336.879 187.767 336.937H188.098C192.788 336.937 196.589 340.738 196.596 345.427C196.605 350.174 192.854 353.975 187.941 353.934C187.875 353.934 187.825 353.934 187.758 353.934H187.036C186.903 353.934 186.779 353.934 186.646 353.925C160.305 353.56 137.216 341.999 109.091 323.426C84.4761 323.907 65.6617 331.535 53.1217 346.108C28.0007 375.312 34.9549 423.613 35.0297 424.102C35.735 428.734 32.5482 433.065 27.909 433.779C27.4781 433.845 27.0464 433.871 26.6147 433.871V433.871Z" fill="black"/>
<path d="M171.758 402.973C169.259 402.973 166.795 401.886 165.118 399.786L103.381 322.695C100.444 319.036 101.032 313.683 104.701 310.753C108.378 307.79 113.722 308.413 116.643 312.072L178.38 389.163C181.318 392.823 180.729 398.176 177.061 401.106C175.492 402.367 173.616 402.973 171.758 402.973Z" fill="black"/>
<path d="M163.35 420.592C162.72 420.592 162.081 420.525 161.433 420.376L119.814 410.79C117.531 410.268 115.573 408.824 114.386 406.799C113.207 404.782 112.909 402.358 113.564 400.118L117.456 386.856H89.9447C87.8125 386.856 85.7618 386.051 84.1939 384.616C72.2598 373.636 70.4258 362.132 70.9901 354.407C72.7994 329.534 100.386 310.023 103.522 307.882C107.39 305.242 112.676 306.23 115.315 310.106C117.963 313.974 116.975 319.259 113.108 321.915C106.452 326.488 88.9487 341.468 87.9366 355.668C87.5796 360.697 89.3889 365.361 93.4639 369.859H128.81C131.49 369.859 134.005 371.121 135.615 373.262C137.216 375.411 137.714 378.183 136.967 380.748L132.411 396.251L165.251 403.811C169.824 404.865 172.679 409.43 171.625 414.003C170.72 417.936 167.218 420.592 163.35 420.592V420.592Z" fill="black"/>
<path d="M181.534 441.126H393.906L452.969 302.179H240.597L181.534 441.126Z" stroke="black" stroke-width="11.7273" stroke-miterlimit="10" stroke-linecap="round" stroke-linejoin="round"/>
<path d="M88.3079 441.126H181.534" stroke="black" stroke-width="11.7273" stroke-miterlimit="10" stroke-linecap="round" stroke-linejoin="round"/>
<rect x="191" y="141" width="75" height="55" rx="19" fill="black"/>
</svg>
