<svg width="477" height="669" viewBox="0 0 477 669" fill="none" xmlns="http://www.w3.org/2000/svg">
<g clip-path="url(#clip0_21_3)">
<path fill-rule="evenodd" clip-rule="evenodd" d="M180 43.2H36C30.2713 43.2 24.7773 45.4757 20.7265 49.5265C16.6757 53.5773 14.4 59.0713 14.4 64.8V136.8C14.4 142.529 16.6757 148.023 20.7265 152.073C24.7773 156.124 30.2713 158.4 36 158.4H108C108.946 158.398 109.883 158.583 110.758 158.944C111.633 159.305 112.428 159.834 113.098 160.502L144 191.419V165.6C144 163.69 144.759 161.859 146.109 160.509C147.459 159.159 149.29 158.4 151.2 158.4H180C185.729 158.4 191.223 156.124 195.273 152.073C199.324 148.023 201.6 142.529 201.6 136.8V64.8C201.6 59.0713 199.324 53.5773 195.273 49.5265C191.223 45.4757 185.729 43.2 180 43.2ZM36 28.8H180C189.548 28.8 198.705 32.5928 205.456 39.3441C212.207 46.0955 216 55.2522 216 64.8V136.8C216 141.528 215.069 146.209 213.26 150.577C211.45 154.944 208.799 158.913 205.456 162.256C202.113 165.599 198.144 168.25 193.777 170.06C189.409 171.869 184.728 172.8 180 172.8H158.4V208.8C158.403 210.226 157.982 211.62 157.191 212.807C156.4 213.993 155.274 214.918 153.957 215.464C152.64 216.01 151.19 216.153 149.792 215.874C148.393 215.595 147.109 214.907 146.102 213.898L105.019 172.8H36C26.4522 172.8 17.2955 169.007 10.5442 162.256C3.79285 155.505 0 146.348 0 136.8L0 64.8C0 55.2522 3.79285 46.0955 10.5442 39.3441C17.2955 32.5928 26.4522 28.8 36 28.8Z" fill="black"/>
</g>
<path d="M101.585 146.702C109.269 146.702 113.659 142.951 114.7 138.092H88.4725C89.5129 142.951 93.9013 146.702 101.586 146.702H101.585Z" fill="#D0CFCE"/>
<path d="M117.327 56.0342C117.327 56.0342 97.6609 50.2555 88.0608 58.1555C78.4623 66.0555 75.7576 84.2326 75.7576 84.2326C76.6983 87.9319 82.5532 98.4296 82.5532 98.4296C83.4216 99.9524 86.1762 111.771 87.7778 118.255H115.388C116.781 113.499 122.383 95.4374 123.115 93.6655C124.054 91.3871 125.655 86.9523 126.464 85.279C128.41 81.2521 127.329 77.832 127.329 73.5326C127.329 64.3605 124.271 60.6178 117.326 56.0309L117.327 56.0342Z" fill="#FCEA2B"/>
<path d="M101.585 50.6717C87.8646 50.6717 75.0517 61.9584 75.0517 76.2139C75.0517 78.0176 74.6271 83.7211 77.0087 83.7211C77.0087 83.7211 80.8567 70.6408 90.4552 62.7424C100.054 54.844 115.412 56.5157 115.412 56.5157C114.344 53.0972 106.487 50.6667 101.589 50.6667L101.585 50.6717Z" fill="white"/>
<path d="M128.664 78.3335C128.664 84.9949 125.794 88.2094 122.627 95.8854C121.819 97.8445 115.856 118.252 115.856 118.252H88.2457C88.2457 118.252 83.4521 98.7439 82.5435 97.1558C78.7325 90.4727 75.4376 85.605 75.4376 78.3335C75.4376 63.0533 87.3532 50.6684 102.051 50.6684C116.75 50.6684 128.664 63.055 128.664 78.3335Z" stroke="black" stroke-width="5.55556" stroke-miterlimit="10" stroke-linecap="round" stroke-linejoin="round"/>
<path d="M102.051 117.566V97.6072V117.566ZM111.651 97.6072H92.4507H111.651Z" fill="black"/>
<path d="M102.051 117.566V97.6072M111.651 97.6072H92.4507" stroke="black" stroke-width="5.55556" stroke-miterlimit="10" stroke-linecap="round" stroke-linejoin="round"/>
<path d="M115.172 136.907C115.172 142.323 109.302 146.714 102.059 146.714C94.8162 146.714 88.9452 142.323 88.9452 136.907H115.172Z" stroke="black" stroke-width="4.71111" stroke-miterlimit="10" stroke-linecap="round" stroke-linejoin="round"/>
<path d="M89.1703 130.538L114.931 124.737L89.1703 130.538Z" fill="black"/>
<path d="M89.1703 130.538L114.931 124.737" stroke="black" stroke-width="5.45833" stroke-miterlimit="10" stroke-linecap="round" stroke-linejoin="round"/>
<path d="M105.589 132.36L114.883 130.387L105.589 132.36ZM89.2186 124.888L98.5131 122.915L89.2186 124.888Z" fill="black"/>
<path d="M105.589 132.36L114.883 130.387M89.2186 124.888L98.5131 122.915" stroke="black" stroke-width="5.55556" stroke-miterlimit="10" stroke-linecap="round" stroke-linejoin="round"/>
<path d="M65.7242 661.069C65.7242 661.069 48.7276 546.342 150.707 546.342C177.832 564.425 201.071 576.922 227.192 576.868H226.129C252.25 576.922 266.14 558.476 293.266 540.393C425.588 540.392 390.996 661.069 390.996 661.069" fill="#92D3F5"/>
<path d="M220.853 632.8L193.328 599.386L165.802 565.973H220.853H275.905L248.379 599.386L220.853 632.8Z" fill="white"/>
<path d="M144.309 542.904C144.309 542.904 94.1662 577.123 125.944 606.36H164.806L157.722 638.16L224.79 654.753L227.257 633.46L156.206 545.387" fill="#61B2E4"/>
<path d="M488.969 530.179L429.906 669.126H217.534L276.597 530.179H488.969Z" fill="#D0CFCE"/>
<path d="M490.81 530.179L431.747 669.126H429.877H355.347L414.41 530.179H488.94H490.81Z" fill="#9B9B9A"/>
<path d="M262.639 563.017L276.597 530.179H414.969C432.76 489.789 378.201 486.5 378.201 486.5C378.201 486.5 378.783 485.085 378.886 480.56C379.185 467.361 377.188 427.691 342.977 319.436C282.515 173.824 167.776 241.883 155.914 262.297C136.085 254.996 127.821 262.297 111.355 310.628C99.3323 356.128 75.8023 448.087 77.6047 483.665C70.7075 480.031 14.1064 483.626 51.3306 552.386C60.2445 563.386 69.5832 573.325 79.273 582.224C91.2734 562.257 112.734 546.342 150.708 546.342C177.607 564.276 200.694 576.679 226.551 576.832C240.802 576.746 251.449 571.048 262.639 563.017V563.017Z" fill="#A57939"/>
<path d="M322.187 352.422C324.072 358.179 325.627 364.148 326.823 370.294C328.692 379.9 329.683 389.936 329.683 400.261C329.683 470.045 284.426 526.617 228.598 526.617C172.77 526.617 127.513 470.045 127.513 400.261C127.513 396.168 127.668 392.121 127.972 388.128L128.409 391.387C145.568 383.049 171.155 307.966 171.155 307.966C171.155 307.966 165.125 362.699 322.585 355.689" fill="#FCEA2B"/>
<path d="M208.371 391.187C208.371 400.573 200.753 408.184 191.375 408.184C181.997 408.184 174.378 400.573 174.378 391.187C174.378 381.809 181.997 374.19 191.375 374.19C200.753 374.19 208.371 381.809 208.371 391.187Z" fill="black"/>
<path d="M225.366 476.19C215.578 476.19 205.789 473.759 196.071 468.899C191.871 466.8 190.17 461.695 192.27 457.496C194.365 453.301 199.461 451.596 203.673 453.695C218.271 460.999 232.462 460.999 247.061 453.695C251.264 451.596 256.364 453.301 258.464 457.496C260.563 461.695 258.861 466.8 254.662 468.899C244.944 473.759 235.155 476.19 225.366 476.19Z" fill="black"/>
<path d="M225.369 531.699C167.548 531.699 120.509 473.854 120.509 402.751C120.509 398.632 120.666 394.557 120.974 390.539L137.92 391.835C137.647 395.428 137.506 399.071 137.506 402.751C137.506 464.485 176.918 514.703 225.369 514.703C273.811 514.703 313.222 464.485 313.222 402.751C313.222 393.61 312.36 384.547 310.658 375.813C309.604 370.381 308.201 364.995 306.5 359.795L322.65 354.501C324.576 360.368 326.152 366.448 327.34 372.568C329.248 382.365 330.219 392.523 330.219 402.751C330.219 473.854 283.18 531.699 225.369 531.699V531.699Z" fill="black"/>
<path d="M272.084 438.99H255.029C241.875 438.99 230.531 431.122 225.443 419.844C220.356 431.122 209.011 438.99 195.857 438.99H178.802C160.918 438.99 146.369 424.442 146.369 406.557V396.038H140.485C135.787 396.038 131.987 392.232 131.987 387.54C131.987 382.846 135.787 379.041 140.485 379.041H154.868C159.565 379.041 163.366 382.846 163.366 387.54V406.557C163.366 415.071 170.287 421.993 178.802 421.993H195.857C204.372 421.993 211.293 415.071 211.293 406.557V397.175C211.293 392.481 215.094 388.677 219.791 388.677H231.095C235.792 388.677 239.593 392.481 239.593 397.175V406.557C239.593 415.071 246.514 421.993 255.029 421.993H272.084C280.599 421.993 287.52 415.071 287.52 406.557V387.54C287.52 382.846 291.321 379.041 296.018 379.041H305.845C310.542 379.041 314.343 382.846 314.343 387.54C314.343 392.232 310.542 396.038 305.845 396.038H304.517V406.557C304.517 424.442 289.968 438.99 272.084 438.99V438.99Z" fill="black"/>
<path d="M129.464 399.685C126.31 399.69 123.281 397.926 121.812 394.901C119.762 390.681 121.521 385.593 125.746 383.544C133.622 379.718 150.934 341.87 162.163 308.922C163.565 304.818 167.823 302.449 172.055 303.37C176.279 304.312 179.125 308.287 178.653 312.594C178.661 312.594 178.512 318.425 185.516 325.421C195.898 335.782 226.489 352.592 314.169 348.667C318.775 348.455 322.833 352.086 323.04 356.779C323.248 361.468 319.621 365.439 314.932 365.646C241.618 368.941 193.666 359.015 172.328 336.23C171.831 335.699 171.349 335.164 170.901 334.633C161.598 358.733 146.61 392.303 133.165 398.83C131.97 399.412 130.709 399.685 129.464 399.685V399.685Z" fill="black"/>
<path d="M57.6686 554.04C54.6475 554.04 51.7258 552.43 50.191 549.592C34.804 521.176 31.9656 501.83 41.5015 490.436C49.4024 481.008 62.9299 480.809 72.6401 482.211C74.1587 453.322 85.8931 397.623 108.276 312.913C119.92 278.693 127.439 265.592 138.261 260.434C144.369 257.526 150.535 257.866 155.955 259.181C169.283 245.164 203.566 226.159 241.004 228.558C272.001 230.62 315.231 248.193 345.141 320.221C360.586 368.999 370.943 408.636 376.188 438.716C376.785 442.168 380.794 467.116 382.877 480.095C390.902 480.17 402.571 482.427 410.928 493.175C413.816 496.884 413.144 502.22 409.442 505.1C405.733 508.005 400.404 507.308 397.517 503.615C390.587 494.702 377.84 497.457 377.715 497.506C375.425 498.063 372.992 497.623 371.017 496.312C369.042 495 367.715 492.926 367.341 490.585C367.341 490.585 360.253 446.301 359.44 441.628C354.328 412.292 344.153 373.402 329.191 326.039C308.111 275.377 277.976 248.052 239.875 245.517C203.517 243.155 171.017 265.202 166.32 273.282C164.246 276.846 159.897 278.389 156.038 276.987C149.581 274.609 147.124 275.037 145.572 275.779C138.518 279.14 130.982 298.922 124.534 317.827C99.7946 411.561 87.9769 470.427 89.595 492.203C89.8108 495.033 88.5905 497.789 86.3503 499.532C84.1093 501.283 81.1298 501.781 78.4495 500.901C70.6982 498.386 58.0664 497.116 54.5226 501.358C53.4025 502.71 48.6137 510.992 65.1378 541.492C67.3703 545.625 65.8346 550.779 61.7096 553.02C60.4238 553.708 59.0377 554.04 57.6686 554.04V554.04Z" fill="black"/>
<path d="M62.6147 661.871C58.4981 661.879 54.8795 658.874 54.2328 654.675C53.8835 652.384 45.9665 598.308 76.1669 563.103C92.5082 544.057 116.542 534.404 147.614 534.404C149.29 534.404 150.934 534.902 152.328 535.832C179.2 553.75 200.554 564.879 223.767 564.937H224.098C228.788 564.937 232.589 568.738 232.596 573.427C232.605 578.174 228.854 581.975 223.941 581.934C223.875 581.934 223.825 581.934 223.758 581.934H223.036C222.903 581.934 222.779 581.934 222.646 581.925C196.305 581.56 173.216 569.999 145.091 551.426C120.476 551.907 101.662 559.535 89.1217 574.108C64.0007 603.312 70.9549 651.613 71.0297 652.102C71.735 656.734 68.5482 661.065 63.909 661.779C63.4781 661.845 63.0464 661.871 62.6147 661.871V661.871Z" fill="black"/>
<path d="M207.758 630.973C205.259 630.973 202.795 629.886 201.118 627.786L139.381 550.695C136.444 547.036 137.032 541.683 140.701 538.753C144.378 535.79 149.722 536.413 152.643 540.072L214.38 617.163C217.318 620.823 216.729 626.176 213.061 629.106C211.492 630.367 209.616 630.973 207.758 630.973Z" fill="black"/>
<path d="M199.35 648.592C198.72 648.592 198.081 648.525 197.433 648.376L155.814 638.79C153.531 638.268 151.573 636.824 150.386 634.799C149.207 632.782 148.909 630.358 149.564 628.118L153.456 614.856H125.945C123.812 614.856 121.762 614.051 120.194 612.616C108.26 601.636 106.426 590.132 106.99 582.407C108.799 557.534 136.386 538.023 139.522 535.882C143.39 533.242 148.676 534.23 151.315 538.106C153.963 541.974 152.975 547.259 149.108 549.915C142.452 554.488 124.949 569.468 123.937 583.668C123.58 588.697 125.389 593.361 129.464 597.859H164.81C167.49 597.859 170.005 599.121 171.615 601.262C173.216 603.411 173.714 606.183 172.967 608.748L168.411 624.251L201.251 631.811C205.824 632.865 208.679 637.43 207.625 642.003C206.72 645.936 203.218 648.592 199.35 648.592V648.592Z" fill="black"/>
<path d="M217.534 669.126H429.906L488.969 530.179H276.597L217.534 669.126Z" stroke="black" stroke-width="11.7273" stroke-miterlimit="10" stroke-linecap="round" stroke-linejoin="round"/>
<path d="M124.308 669.126H217.534" stroke="black" stroke-width="11.7273" stroke-miterlimit="10" stroke-linecap="round" stroke-linejoin="round"/>
<rect x="227" y="369" width="75" height="55" rx="19" fill="black"/>
<defs>
<clipPath id="clip0_21_3">
<rect width="216" height="216" fill="white"/>
</clipPath>
</defs>
</svg>
